#!OML:ASF F:\VICON\USERDATA\INSTALL\rory3\rory3.ASF
:FULLY-SPECIFIED
:DEGREES
53
root 11.7295 17.8544 11.3172 -166.184 -33.0211 178.49
lowerback -7.8553 -0.190627 0.246127
upperback -2.31338 -0.376931 -0.264673
thorax 2.00987 -0.235439 -0.448138
lowerneck -17.9496 0.988719 1.05289
upperneck 27.3466 0.559108 -1.01687
head 11.9697 -0.0855703 -0.540108
rclavicle -4.07509e-015 7.95139e-015
rhumerus -32.2297 15.6865 -96.6145
rradius 28.3746
rwrist 4.47375
rhand -24.109 8.897
rfingers 7.12502
rthumb 2.37208 -21.0696
lclavicle -4.07509e-015 7.95139e-015
lhumerus -38.3492 -11.3664 87.4742
lradius 33.5554
lwrist 8.23628
lhand -11.8874 26.9485
lfingers 7.12502
lthumb 14.1655 56.4455
rfemur -3.10379 -2.93472 21.505
rtibia 16.0737
rfoot -21.1978 9.58997
rtoes 3.87722
lfemur -45.461 9.32725 -27.7764
ltibia 23.1866
lfoot -12.4899 -5.49986
ltoes -21.0668
54
root 11.6712 17.8497 11.2411 -166.214 -32.8079 178.74
lowerback -8.01315 -0.0967378 0.471802
upperback -2.36071 -0.275357 -0.241554
thorax 2.04866 -0.186441 -0.542273
lowerneck -17.9394 0.958645 1.01411
upperneck 27.3117 0.531015 -1.01795
head 11.9534 -0.101474 -0.53782
rclavicle -3.60297e-015 1.19271e-015
rhumerus -32.2917 15.4837 -96.558
rradius 28.3664
rwrist 4.55338
rhand -23.9532 9.08545
rfingers 7.12502
rthumb 2.52258 -20.8794
lclavicle -3.60297e-015 1.19271e-015
lhumerus -38.3937 -11.2866 87.4588
lradius 33.575
lwrist 8.03122
lhand -11.7454 26.8023
lfingers 7.12502
lthumb 14.3024 56.2897
rfemur -2.68588 -2.86481 21.6414
rtibia 15.7431
rfoot -21.0736 9.56085
rtoes 2.9199
lfemur -45.4817 9.46523 -27.76
ltibia 22.6183
lfoot -12.4562 -5.53529
ltoes -18.2148
55
root 11.6118 17.8458 11.1658 -166.243 -32.3833 179.102
lowerback -8.21886 0.0505522 0.727796
upperback -2.42039 -0.108726 -0.189988
thorax 2.10289 -0.105664 -0.617525
lowerneck -17.9494 1.00693 1.15522
upperneck 27.2763 0.604336 -1.16684
head 11.9437 -0.0722468 -0.605824
rclavicle -1.27409e-014 8.05078e-015
rhumerus -32.3055 15.1568 -96.4351
rradius 28.1893
rwrist 4.86106
rhand -24.024 9.55599
rfingers 7.12502
rthumb 2.45419 -20.4096
lclavicle -1.27409e-014 8.05078e-015
lhumerus -38.3831 -11.0997 87.4325
lradius 33.4568
lwrist 7.88931
lhand -11.6293 26.8763
lfingers 7.12502
lthumb 14.4142 56.3557
rfemur -2.36912 -2.83809 21.7889
rtibia 15.4025
rfoot -20.7649 9.90532
rtoes 2.69368
lfemur -45.5912 9.69927 -27.6041
ltibia 22.1753
lfoot -12.6817 -5.32666
ltoes -18.277
56
root 11.5566 17.839 11.0902 -166.183 -32.054 179.249
lowerback -8.39134 0.107709 0.735543
upperback -2.45358 -0.0400048 -0.155015
thorax 2.16525 -0.0731655 -0.57937
lowerneck -17.9581 1.07933 1.25103
upperneck 27.2085 0.714964 -1.26778
head 11.9215 -0.0236314 -0.641923
rclavicle 2.98425e-014 3.27995e-015
rhumerus -32.2516 15.0028 -96.3417
rradius 28.022
rwrist 4.99103
rhand -23.8351 10.1098
rfingers 7.12502
rthumb 2.63657 -19.8537
lclavicle 2.98425e-014 3.27995e-015
lhumerus -38.3997 -10.9807 87.4459
lradius 33.4209
lwrist 8.0698
lhand -11.9327 26.9358
lfingers 7.12502
lthumb 14.1219 56.4359
rfemur -2.01857 -2.55812 21.8171
rtibia 15.0405
rfoot -20.4943 9.92341
rtoes 3.07765
lfemur -45.7161 9.92014 -27.657
ltibia 21.8635
lfoot -12.7693 -5.30014
ltoes -18.0962
57
root 11.501 17.8346 11.013 -166.199 -31.9057 179.354
lowerback -8.42351 0.0973075 0.712249
upperback -2.45913 -0.0547277 -0.0946891
thorax 2.17719 -0.0808689 -0.505607
lowerneck -17.9973 1.11744 1.24763
upperneck 27.1334 0.80079 -1.34009
head 11.9017 0.00802039 -0.653992
rclavicle -1.06598e-014 -2.18663e-015
rhumerus -32.243 15.0651 -96.238
rradius 27.9655
rwrist 4.71802
rhand -23.3906 11.0531
rfingers 7.12502
rthumb 3.06588 -18.9046
lclavicle -1.06598e-014 -2.18663e-015
lhumerus -38.4408 -11.1392 87.6259
lradius 33.4812
lwrist 8.64176
lhand -12.5369 26.8517
lfingers 7.12502
lthumb 13.5396 56.3915
rfemur -1.5384 -2.1437 21.8761
rtibia 14.7226
rfoot -20.4409 9.58188
rtoes 2.83539
lfemur -45.6927 9.8196 -27.5652
ltibia 21.6627
lfoot -12.8761 -5.05096
ltoes -18.3079
58
root 11.4447 17.8281 10.9338 -166.147 -31.7413 179.391
lowerback -8.5124 0.143396 0.655505
upperback -2.46256 0.00975733 -0.115586
thorax 2.2237 -0.0493405 -0.488842
lowerneck -18.0669 1.10732 1.32824
upperneck 27.0961 0.7825 -1.39085
head 11.9017 0.00425238 -0.688692
rclavicle -7.84143e-014 -1.25234e-014
rhumerus -32.2043 14.9675 -96.188
rradius 27.8942
rwrist 4.50063
rhand -23.2543 11.4531
rfingers 7.12502
rthumb 3.19752 -18.5027
lclavicle -7.84143e-014 -1.25234e-014
lhumerus -38.3132 -11.1407 87.5518
lradius 33.3733
lwrist 8.28908
lhand -12.2586 26.9297
lfingers 7.12502
lthumb 13.8078 56.4515
rfemur -1.16104 -2.29022 21.8071
rtibia 14.4899
rfoot -20.2331 9.78421
rtoes 2.33481
lfemur -45.6752 9.68455 -27.4964
ltibia 21.5038
lfoot -12.9745 -4.8438
ltoes -17.9004
59
root 11.3854 17.8178 10.8518 -166.051 -31.5584 179.434
lowerback -8.65769 0.203534 0.615468
upperback -2.48616 0.0899094 -0.158034
thorax 2.28075 -0.0109009 -0.501936
lowerneck -18.1439 1.11755 1.48283
upperneck 27.0813 0.774776 -1.46344
head 11.9126 0.00940274 -0.742838
rclavicle -2.24937e-014 1.19271e-015
rhumerus -32.2179 14.7558 -96.1913
rradius 27.8718
rwrist 4.56778
rhand -23.2761 11.3014
rfingers 7.12502
rthumb 3.17642 -18.6547
lclavicle -2.24937e-014 1.19271e-015
lhumerus -38.1366 -10.8886 87.2322
lradius 33.1811
lwrist 7.12814
lhand -11.1297 26.9944
lfingers 7.12502
lthumb 14.8956 56.4389
rfemur -0.88485 -2.94173 21.6689
rtibia 14.3092
rfoot -19.841 10.5819
rtoes 2.14507
lfemur -45.7187 9.67052 -27.5006
ltibia 21.3892
lfoot -12.9654 -4.84932
ltoes -17.482
60
root 11.3226 17.809 10.7681 -165.96 -31.457 179.419
lowerback -8.76369 0.171529 0.524544
upperback -2.51606 0.050963 -0.147227
thorax 2.30783 -0.0319262 -0.443811
lowerneck -18.0901 1.18456 1.5088
upperneck 26.954 0.87945 -1.48848
head 11.8543 0.0592151 -0.738762
rclavicle 1.39708e-014 -1.33186e-014
rhumerus -32.327 14.8742 -96.2206
rradius 27.885
rwrist 4.59237
rhand -23.2136 11.3972
rfingers 7.12502
rthumb 3.23683 -18.558
lclavicle 1.39708e-014 -1.33186e-014
lhumerus -38.1221 -10.5547 87.0542
lradius 33.1223
lwrist 6.43034
lhand -10.5631 26.8814
lfingers 7.12502
lthumb 15.4413 56.2846
rfemur -0.524285 -3.37294 21.5185
rtibia 14.1154
rfoot -19.5026 11.0608
rtoes 1.4889
lfemur -45.7155 9.52556 -27.4953
ltibia 21.368
lfoot -12.8942 -4.96458
ltoes -16.8295
61
root 11.2579 17.8012 10.6813 -165.957 -31.3409 179.301
lowerback -8.70589 0.13091 0.325305
upperback -2.53052 0.0140921 -0.141564
thorax 2.26032 -0.0509134 -0.329779
lowerneck -18.0834 1.2276 1.45887
upperneck 26.9037 0.966986 -1.50902
head 11.8346 0.0918538 -0.723826
rclavicle 4.8783e-014 6.65929e-015
rhumerus -32.4665 14.9788 -96.2255
rradius 27.8911
rwrist 4.60446
rhand -23.1127 11.5299
rfingers 7.12502
rthumb 3.33422 -18.4238
lclavicle 4.8783e-014 6.65929e-015
lhumerus -38.1914 -10.4494 87.1232
lradius 33.0798
lwrist 6.49762
lhand -10.9058 26.6822
lfingers 7.12502
lthumb 15.1112 56.1106
rfemur 0.0620123 -3.556 21.2697
rtibia 13.8369
rfoot -19.1969 11.3315
rtoes 0.84831
lfemur -45.5665 9.39482 -27.5696
ltibia 21.4456
lfoot -12.8463 -5.11049
ltoes -16.1323
